<?xml version="1.0" encoding="UTF-8"?>
<svg version="1.1" xmlns="http://www.w3.org/2000/svg" width="1024" height="1024">
  <!-- This path defines the transparent background -->
  <path d="M0 0 C337.92 0 675.84 0 1024 0 C1024 337.92 1024 675.84 1024 1024 C686.08 1024 348.16 1024 0 1024 C0 686.08 0 348.16 0 0 Z " fill="transparent" transform="translate(0,0)"/>
  
  <!-- This group contains all the rosette shapes, filled in white -->
  <g fill="transparent" stroke="white" stroke-width="20" stroke-linecap="round" stroke-linejoin="round">
    <path d="M0 0 C0.77762695 0.18804199 1.55525391 0.37608398 2.35644531 0.56982422 C25.63320502 6.36825604 44.03479564 18.05282658 61.30078125 34.4453125 C62.87139875 35.93183037 64.46354677 37.39732581 66.10546875 38.8046875 C77.61484505 49.10379949 85.11161203 64.95051292 91 79 C91.35835937 79.845625 91.71671875 80.69125 92.0859375 81.5625 C93.44964387 84.9655104 94 87.2773377 94 91 C94.88558594 90.43152344 95.77117188 89.86304688 96.68359375 89.27734375 C116.15362977 77.02761267 137.80666852 69.48892398 161 69 C162.02996094 68.938125 163.05992187 68.87625 164.12109375 68.8125 C195.37344686 67.63455501 226.24637755 80.65822697 248.9375 101.59375 C272.34141407 123.79018681 290.25942295 154.2481419 292 187 C292.06574219 188.21913086 292.06574219 188.21913086 292.1328125 189.46289062 C293.25410249 214.48634551 288.52942412 240.05907297 276 262 C276.54785156 262.01417969 277.09570312 262.02835937 277.66015625 262.04296875 C302.40061748 263.53141926 324.78068555 279.42859029 342 296 C342.69480469 296.62003906 343.38960937 297.24007813 344.10546875 297.87890625 C355.61071385 308.48270947 363.74012312 322.81823196 370 337 C370.72123047 338.63001953 370.72123047 338.63001953 371.45703125 340.29296875 C385.23773522 373.80797387 382.96932259 409.68418587 369.625 442.8125 C357.11420278 472.60990254 332.41261681 497.33302904 302.8125 510.3359375 C301 511 301 511 299 511 C299.49628906 511.825 299.99257813 512.65 300.50390625 513.5 C319.13117083 544.95168614 326.55698563 580.23357482 317.44775391 616.17919922 C312.34457934 635.5900211 304.22132267 652.7801053 291 668 C290.31421875 668.80695312 289.6284375 669.61390625 288.921875 670.4453125 C271.26691707 690.70405919 249.7197963 703.76869791 224.01464844 711.39794922 C222.28475694 711.91490419 220.56671998 712.47123971 218.8515625 713.03515625 C196.39179101 719.50814669 170.88796991 714.23331317 149 708 C148.85304688 709.23492188 148.70609375 710.46984375 148.5546875 711.7421875 C145.61238378 734.68028685 138.10601857 757.75454991 122 775 C121.25363281 775.825 120.50726562 776.65 119.73828125 777.5 C105.04606372 793.02028132 86.44155351 801.83207398 66 807 C64.68322266 807.36931641 64.68322266 807.36931641 63.33984375 807.74609375 C42.11154574 813.02585912 19.37768995 807.03354945 0.75 796.6875 C-11.00645564 789.48548897 -20.89242927 780.14790976 -29 769 C-29.54527344 769.61746094 -30.09054687 770.23492188 -30.65234375 770.87109375 C-33.08163325 773.59937273 -35.53667109 776.30242816 -38 779 C-38.69609375 779.77601563 -39.3921875 780.55203125 -40.109375 781.3515625 C-56.05180337 798.31286787 -80.54412057 808.43514267 -103.62890625 809.203125 C-133.09072232 809.6691239 -157.8751568 799.29889346 -179.15234375 778.8984375 C-194.99961996 763.12003945 -206.54558329 738.67376485 -207.06713867 716.09326172 C-207.0591626 715.13178223 -207.05118652 714.17030273 -207.04296875 713.1796875 C-207.03676514 712.20499512 -207.03056152 711.23030273 -207.02416992 710.22607422 C-207.01619385 709.49146973 -207.00821777 708.75686523 -207 708 C-207.72590332 708.176521 -208.45180664 708.35304199 -209.19970703 708.53491211 C-212.5076054 709.33798723 -215.81629061 710.13777323 -219.125 710.9375 C-220.26710938 711.21529297 -221.40921875 711.49308594 -222.5859375 711.77929688 C-224.24882812 712.18051758 -224.24882812 712.18051758 -225.9453125 712.58984375 C-226.96125488 712.83597412 -227.97719727 713.08210449 -229.02392578 713.33569336 C-236.91139591 715.09630092 -244.4415437 715.18355751 -252.5 715.1875 C-253.78648437 715.19974609 -255.07296875 715.21199219 -256.3984375 715.22460938 C-268.35495936 715.24265242 -279.9706775 714.37143832 -291.1875 710 C-292.37098022 709.54923096 -292.37098022 709.54923096 -293.57836914 709.08935547 C-312.08808433 701.79970203 -327.55504525 691.65535916 -342 678 C-342.82242188 677.24203125 -343.64484375 676.4840625 -344.4921875 675.703125 C-367.50808197 653.76273962 -380.14222827 622.17411476 -381.27734375 590.6640625 C-381.91165129 561.13424172 -374.20202037 537.11000911 -361 511 C-361.92039062 510.53851562 -362.84078125 510.07703125 -363.7890625 509.6015625 C-373.14803658 504.81551103 -381.64506306 499.36850277 -390 493 C-390.94101562 492.28457031 -391.88203125 491.56914063 -392.8515625 490.83203125 C-408.49297236 478.61660995 -420.17492992 462.6850391 -429 445 C-429.32726074 444.34676758 -429.65452148 443.69353516 -429.99169922 443.02050781 C-444.13938402 414.2140327 -444.85574605 379.75737507 -434.67333984 349.50463867 C-421.78449655 313.87572331 -395.53902086 284.0934481 -361.23046875 267.828125 C-354.05019727 264.6049581 -346.51667234 262.29676099 -339 260 C-339.22139648 259.46334717 -339.44279297 258.92669434 -339.67089844 258.3737793 C-344.83015706 245.73198509 -348.74112128 233.46710253 -351 220 C-351.22429687 218.72125 -351.44859375 217.4425 -351.6796875 216.125 C-356.79650971 184.16238455 -347.40904268 150.39272581 -329 124 C-324.90195939 118.46978565 -320.51716935 113.19084933 -316 108 C-315.31292969 107.20851563 -314.62585938 106.41703125 -313.91796875 105.6015625 C-293.14259996 83.42306423 -260.17861612 69.69663629 -229.98510742 68.64868164 C-204.38264135 68.35257586 -176.4674791 73.40211421 -155 88 C-154.64808594 87.29617187 -154.29617188 86.59234375 -153.93359375 85.8671875 C-152.87734218 83.75468435 -151.81705897 81.64419471 -150.75390625 79.53515625 C-149.62797393 77.2657381 -148.52904986 74.9826039 -147.46484375 72.68359375 C-139.35176927 55.48068644 -127.03331559 37.82548333 -112 26 C-111.15308594 25.30519531 -110.30617188 24.61039063 -109.43359375 23.89453125 C-91.26537954 9.53299049 -69.71949256 1.68730841 -47 -2 C-46.10796875 -2.18304688 -45.2159375 -2.36609375 -44.296875 -2.5546875 C-29.66952802 -4.5304192 -14.29482418 -3.56231964 0 0 Z " transform="translate(542,99)"/>
    <path d="M0 0 C17.4182178 15.18718064 31.03614173 35.33023923 33.83984375 58.7890625 C33.41773155 62.09649863 32.12963343 63.01607568 29.65625 65.20703125 C14.35791246 79.76781286 3.33448946 99.26969736 -7.34667969 117.30761719 C-11.17605352 123.76726799 -15.22929699 130.00704068 -19.46875 136.20703125 C-27.03791817 147.39162155 -34.37699617 158.71323241 -41.46875 170.20703125 C-41.83709961 170.80273926 -42.20544922 171.39844727 -42.58496094 172.01220703 C-51.92810563 187.28483038 -59.12364148 203.90988269 -66.46875 220.20703125 C-68.55784969 218.11793156 -69.23326097 216.71205035 -70.3515625 214.015625 C-70.70951904 213.16242676 -71.06747559 212.30922852 -71.4362793 211.43017578 C-71.81824463 210.51091309 -72.20020996 209.59165039 -72.59375 208.64453125 C-73.41353138 206.71276269 -74.23516965 204.78178115 -75.05859375 202.8515625 C-75.46835449 201.89072754 -75.87811523 200.92989258 -76.30029297 199.93994141 C-84.32853093 181.16265438 -94.85043944 164.15179705 -106.07348633 147.12109375 C-110.62184506 140.1314513 -114.77945267 132.91458162 -118.96875 125.70703125 C-125.19040703 115.01215329 -131.56232954 104.47672817 -138.46875 94.20703125 C-138.97325684 93.44777344 -139.47776367 92.68851562 -139.99755859 91.90625 C-146.17818124 82.61185481 -152.40745575 73.52255339 -159.86303711 65.18896484 C-162.30962876 62.32152121 -163.43291344 60.48806531 -163.9140625 56.71484375 C-161.75106167 39.67646877 -152.00472598 22.59541925 -140.46875 10.20703125 C-139.15197266 8.78777344 -139.15197266 8.78777344 -137.80859375 7.33984375 C-122.34882179 -8.90866414 -103.84375759 -16.52229182 -82.46875 -21.79296875 C-80.89287109 -22.19515625 -80.89287109 -22.19515625 -79.28515625 -22.60546875 C-51.17794962 -28.76595239 -21.55155191 -17.83459121 0 0 Z " transform="translate(577.46875,150.79296875)"/>
    <path d="M0 0 C1 1 1 1 1.05004883 4.90771484 C1.02292927 6.67551962 0.99158058 8.44326232 0.95703125 10.2109375 C0.93116175 12.16526448 0.90680828 14.11961198 0.88378906 16.07397461 C0.87126099 17.10311981 0.85873291 18.13226501 0.8458252 19.19259644 C0.66079168 36.86244946 1.03246028 53.75034703 4.453125 71.14257812 C4.99201724 73.95829009 5.44656075 76.77493201 5.875 79.609375 C11.10582558 113.56662193 21.74272304 146.53535318 33.22998047 178.81591797 C34.18781241 181.5327108 35.10259853 184.26270004 36 187 C33.98635478 186.13700919 31.97273776 185.27395254 29.95922852 184.41064453 C28.11119327 183.61893871 26.26270343 182.8282934 24.41381836 182.03857422 C19.07360947 179.75557073 13.74320401 177.45281199 8.42578125 175.1171875 C-16.80902964 164.08081502 -42.47043372 154.48643766 -69 147 C-69.88349121 146.75024414 -70.76698242 146.50048828 -71.67724609 146.24316406 C-91.94746422 140.65325117 -114.13647986 136.43073769 -135.17553711 138.58666992 C-137.71064507 138.74160566 -139.57310268 138.75858534 -142 138 C-144.72842531 135.36587857 -146.32806874 132.37785802 -148 129 C-148.37737305 128.26322021 -148.75474609 127.52644043 -149.14355469 126.76733398 C-160.71854571 102.889213 -164.50324621 75.4890708 -155.67578125 50 C-145.4197801 22.40729307 -125.51528874 1.05240645 -98.875 -11.34375 C-67.37338223 -25.23967321 -27.96851847 -19.24270811 0 0 Z " transform="translate(379,218)"/>
    <path d="M0 0 C7.34647311 6.59704841 13.37295932 13.90096457 19 22 C19.55558594 22.78761719 20.11117187 23.57523438 20.68359375 24.38671875 C27.23936044 34.41619038 31.44219577 47.14450285 33 59 C33.10957031 59.79664063 33.21914063 60.59328125 33.33203125 61.4140625 C33.6564799 64.27786256 33.85014761 67.12144014 34 70 C34.03399902 70.65000977 34.06799805 71.30001953 34.10302734 71.96972656 C34.88754641 89.35658059 31.03998182 104.19061154 24 120 C23.61457031 121.17691406 23.22914063 122.35382813 22.83203125 123.56640625 C21.30320293 127.36381853 20.19542787 129.41147354 17 132 C10.88172611 133.6262674 4.33297916 133.06909112 -1.93994141 132.97949219 C-50.27838836 133.3034454 -98.26936696 154.18197095 -141.921875 172.93359375 C-142.86065742 173.33616646 -142.86065742 173.33616646 -143.81840515 173.74687195 C-147.34886994 175.26725091 -150.84303073 176.85160144 -154.328125 178.47265625 C-156.14570312 179.22869141 -156.14570312 179.22869141 -158 180 C-158.66 179.67 -159.32 179.34 -160 179 C-159.47998413 177.61554688 -159.47998413 177.61554688 -158.94946289 176.203125 C-140.11043999 125.86453803 -121.27053545 68.60424705 -126.5 14.1875 C-126.57863281 13.31867188 -126.65726563 12.44984375 -126.73828125 11.5546875 C-126.91548587 9.82495879 -127.14375747 8.0998364 -127.41796875 6.3828125 C-127.83290449 2.4258891 -127.84713559 0.05503354 -125.296875 -3.12109375 C-122.65439153 -5.36545471 -119.95383864 -7.18309678 -117 -9 C-116.44828125 -9.34305176 -115.8965625 -9.68610352 -115.328125 -10.03955078 C-79.71058359 -31.76905873 -31.3426068 -26.85932155 0 0 Z " transform="translate(770,223)"/>
    <path d="M0 0 C1.30863371 1.47068414 2.5446856 3.00601318 3.75 4.5625 C7.68638371 9.48616441 11.81414241 14.15117712 16.125 18.75 C16.69831055 19.36302979 17.27162109 19.97605957 17.86230469 20.60766602 C19.56434405 22.41553544 21.27806606 24.21107615 23 26 C23.57967529 26.60303955 24.15935059 27.2060791 24.7565918 27.82739258 C28.47308761 31.62520765 32.32734349 34.98545848 36.5625 38.1875 C41.52534754 42.00820545 46.33790165 45.95116864 51.0625 50.0625 C67.97841977 64.71095176 86.49358472 77.46051872 105 90 C105.6300293 90.42909668 106.26005859 90.85819336 106.90917969 91.30029297 C113.85434779 96.02522572 120.86425271 100.60589027 128.0625 104.9375 C128.97334351 105.48591553 128.97334351 105.48591553 129.90258789 106.04541016 C133.52661529 108.19898554 137.20825297 110.15895388 141 112 C141 112.66 141 113.32 141 114 C138.70063209 114.8635785 136.40115091 115.72685271 134.1015625 116.58984375 C133.38142975 116.86013901 132.661297 117.13043427 131.91934204 117.40892029 C127.46766339 119.07851749 123.01263972 120.73874138 118.55462646 122.39134216 C77.32659588 137.6891974 37.4661228 154.47134015 2 181 C1.19820313 181.58910156 0.39640625 182.17820312 -0.4296875 182.78515625 C-3.81115137 185.33027941 -6.96589016 187.92708263 -9.93359375 190.9453125 C-10.45163574 191.45908447 -10.96967773 191.97285645 -11.50341797 192.50219727 C-12.52059623 193.52017194 -13.5171753 194.55928063 -14.48876953 195.62084961 C-15.91015625 197.03515625 -15.91015625 197.03515625 -19 199 C-22.15974491 198.61892524 -24.1401084 198.16644979 -27 197 C-27.96208374 196.60929321 -27.96208374 196.60929321 -28.94360352 196.21069336 C-30.91504881 195.34669433 -32.83137775 194.41300203 -34.75 193.4375 C-35.44174316 193.08743896 -36.13348633 192.73737793 -36.84619141 192.37670898 C-47.45439232 186.84236819 -56.31047002 179.15782797 -65 171 C-65.92039063 170.19369141 -65.92039063 170.19369141 -66.859375 169.37109375 C-82.23172409 155.30327887 -90.95879018 130.93056017 -92.14257812 110.54467773 C-92.59510076 97.79208199 -92.28272038 86.10756314 -88 74 C-87.75330566 73.30181152 -87.50661133 72.60362305 -87.25244141 71.88427734 C-76.80812821 43.19287063 -56.66215688 20.94651378 -29.06835938 7.90380859 C-20.10988766 3.98923561 -9.88581957 0 0 0 Z " transform="translate(223,387)"/>
    <path d="M0 0 C26.88611017 2.77560767 51.19818561 15.60828954 69 36 C86.72247336 58.434636 94.55255245 84.50370496 91.5390625 112.97265625 C88.23269198 138.77387406 75.4800115 162.73083199 55 179 C46.25440292 185.57157699 37.1731385 191.84681259 27 196 C25.27136719 196.71542969 25.27136719 196.71542969 23.5078125 197.4453125 C20 198 20 198 17.18359375 196.17578125 C16.27738281 195.23089844 15.37117187 194.28601563 14.4375 193.3125 C13.39339824 192.27453027 12.34506223 191.24080591 11.29296875 190.2109375 C10.75333496 189.6756543 10.21370117 189.14037109 9.65771484 188.58886719 C0.83047145 180.12823391 -9.50044844 173.47324345 -19.95117188 167.22509766 C-21.96880192 166.0186549 -23.9767483 164.79721608 -25.984375 163.57421875 C-30.28237117 160.97701443 -34.62718059 158.46890801 -39 156 C-39.80663086 155.54399414 -40.61326172 155.08798828 -41.44433594 154.61816406 C-66.4005059 140.68135316 -93.23457934 130.73318477 -120.13549805 121.26196289 C-127.22127967 118.76347784 -134.19247874 116.20083677 -141 113 C-141 112.34 -141 111.68 -141 111 C-140.35264893 110.64397705 -139.70529785 110.2879541 -139.03833008 109.92114258 C-108.89190881 93.299542 -77.70953677 75.74547363 -52.3671875 52.15234375 C-49.76193022 49.78353721 -47.05714094 47.58038222 -44.3125 45.375 C-40.5242633 42.31035907 -37.02711141 39.14984366 -33.64453125 35.6484375 C-31.99735498 33.99734869 -30.28216058 32.50357873 -28.5 31 C-17.79699462 21.71571658 -8.0323475 11.68935124 0 0 Z " transform="translate(801,388)"/>
    <path d="M0 0 C1.04526855 0.24645264 2.09053711 0.49290527 3.16748047 0.74682617 C42.3634676 9.97049276 80.74171407 18.2093372 121.1875 18.25 C122.15789215 18.25200409 123.1282843 18.25400818 124.12808228 18.256073 C140.4679672 18.26432487 156.41090214 17.36326457 172.53955078 14.55834961 C178.44411216 13.6525701 178.44411216 13.6525701 181.09375 15.30859375 C181.5578125 16.01113281 182.021875 16.71367188 182.5 17.4375 C183.33144531 18.68660156 183.33144531 18.68660156 184.1796875 19.9609375 C185.08074219 21.46527344 185.08074219 21.46527344 186 23 C186.54188965 23.86286621 186.54188965 23.86286621 187.09472656 24.74316406 C200.6567811 46.41284482 205.75175436 72.00922751 200.61450195 97.24267578 C193.77695594 126.53247361 175.65449017 149.93626302 150.3125 165.6875 C145.32496509 168.48263909 140.18104001 170.70753844 134.875 172.8125 C134.14708252 173.10278076 133.41916504 173.39306152 132.66918945 173.69213867 C123.165802 177.30400142 114.06916903 178.36654601 103.9375 178.3125 C102.84058838 178.30758545 101.74367676 178.3026709 100.61352539 178.29760742 C85.58099121 178.0828412 72.16516586 174.82340103 58 170 C57.89977539 169.37770508 57.79955078 168.75541016 57.69628906 168.11425781 C49.02250772 114.51776315 30.59210879 65.60066078 7.1027832 16.78613281 C6.77581451 16.10471222 6.44884583 15.42329163 6.11196899 14.72122192 C5.23115919 12.88924117 4.34467873 11.05998985 3.45776367 9.23095703 C2.08749121 6.1939137 0.98913108 3.1790703 0 0 Z " transform="translate(631,606)"/>
    <path d="M0 0 C-0.73246948 1.43883545 -0.73246948 1.43883545 -1.47973633 2.90673828 C-6.4797528 12.78326565 -11.19422159 22.75846523 -15.6875 32.875 C-16.0280542 33.6399176 -16.3686084 34.40483521 -16.71948242 35.19293213 C-23.60033125 50.69480269 -29.76601768 66.4253847 -35.63818359 82.33300781 C-36.8339339 85.55283027 -38.05847821 88.75887519 -39.30078125 91.9609375 C-46.02446812 109.47903926 -51.7571792 127.76635957 -54.2265625 146.41015625 C-54.36917259 147.44038406 -54.36917259 147.44038406 -54.5146637 148.49142456 C-54.96787712 151.80093652 -55.36038492 155.08946769 -55.6628418 158.41796875 C-56.73968084 166.99065807 -56.73968084 166.99065807 -60.32202148 169.85961914 C-63.18605551 171.21684133 -65.94588746 172.16272014 -69 173 C-69.73500732 173.24258545 -70.47001465 173.4851709 -71.22729492 173.73510742 C-96.73012518 181.67062348 -123.82082602 178.16794558 -147.11230469 166.01708984 C-155.40559879 161.5486647 -162.85988594 156.1289062 -170 150 C-170.59167969 149.49339844 -171.18335938 148.98679687 -171.79296875 148.46484375 C-185.98065383 135.2881576 -194.77658667 117.36998172 -200 99 C-200.18691406 98.35442139 -200.37382812 97.70884277 -200.56640625 97.04370117 C-206.55247306 73.90381168 -201.88170698 47.6485759 -189.94921875 27.19921875 C-187.77466239 23.69620614 -185.43562061 20.32515162 -183 17 C-182.57388428 16.28537598 -182.14776855 15.57075195 -181.70874023 14.83447266 C-180 13 -180 13 -177.65356445 12.78955078 C-176.732771 12.92345215 -175.81197754 13.05735352 -174.86328125 13.1953125 C-173.82324951 13.33348389 -172.78321777 13.47165527 -171.71166992 13.61401367 C-170.58994385 13.78263916 -169.46821777 13.95126465 -168.3125 14.125 C-165.94050181 14.43921446 -163.56809349 14.7503463 -161.1953125 15.05859375 C-159.99165039 15.21956543 -158.78798828 15.38053711 -157.54785156 15.54638672 C-122.61635581 20.01257989 -88.51393163 17.52658162 -54 11 C-52.96117676 10.80647949 -51.92235352 10.61295898 -50.85205078 10.41357422 C-28.47849294 6.32774733 -28.47849294 6.32774733 -6.73046875 -0.20703125 C-3.83465866 -1.04801758 -2.79323975 -0.83912754 0 0 Z " transform="translate(393,607)"/>
    <path d="M0 0 C14.73501564 11.60940627 23.47952419 25.97107848 28.8359375 43.796875 C29.08214844 44.58835937 29.32835937 45.37984375 29.58203125 46.1953125 C33.97750814 63.47408372 31.07151551 83.24602713 22.8359375 98.796875 C22.20751953 100.02470703 22.20751953 100.02470703 21.56640625 101.27734375 C11.14568655 120.16677514 -7.12587861 133.05541255 -27.4765625 139.296875 C-48.39204921 144.22334085 -68.9705591 139.72461919 -87.1640625 128.796875 C-90.41308838 126.68357056 -93.30431263 124.40935326 -96.1640625 121.796875 C-96.99421875 121.04664063 -97.824375 120.29640625 -98.6796875 119.5234375 C-104.64415535 113.86255035 -109.14243079 107.95558515 -113.1640625 100.796875 C-113.63714844 99.9615625 -114.11023438 99.12625 -114.59765625 98.265625 C-123.06728541 82.38192877 -124.94321765 62.13271724 -120.4765625 44.734375 C-119.74689442 42.40855799 -118.97814205 40.09450742 -118.1640625 37.796875 C-117.638125 36.23066406 -117.638125 36.23066406 -117.1015625 34.6328125 C-109.6328633 14.5606834 -92.45440431 0.40676885 -73.69921875 -8.6953125 C-49.09554366 -19.18925569 -21.58713019 -15.0310388 0 0 Z " transform="translate(558.1640625,449.203125)"/>
    <path d="M0 0 C3.63025467 3.48864899 6.71489534 7.08811243 9.75 11.125 C14.36314202 17.20111798 19.1083168 23.1443206 24 29 C24.44569336 29.53737793 24.89138672 30.07475586 25.35058594 30.62841797 C32.36130682 39.06101121 39.73433606 46.96436595 47.5859375 54.61865234 C50.74895875 57.70849596 53.85736992 60.85104371 56.9453125 64.015625 C63.62412678 70.83166085 70.45495689 77.13396509 78 83 C79.0514443 83.84162024 80.10220077 84.68410033 81.15234375 85.52734375 C82.24633466 86.3945695 83.34139482 87.26044806 84.4375 88.125 C84.97463623 88.55296875 85.51177246 88.9809375 86.06518555 89.421875 C89.78263638 92.29918306 93.52431938 94.21493691 97.8125 96.1875 C101.43333959 98.24425168 102.74072853 99.08398361 103.88671875 103.1328125 C104.0116029 107.18939412 103.64909992 111.00967646 103 115 C102.89558594 115.71687988 102.79117188 116.43375977 102.68359375 117.17236328 C99.46981468 138.03883977 89.30569068 157.3398504 73 171 C56.13482961 183.17678325 37.73562313 186.13031664 17.37890625 183.5390625 C-0.28917934 179.55025168 -12.63097424 168.33505865 -23 154 C-23.53882813 153.2884375 -24.07765625 152.576875 -24.6328125 151.84375 C-25.10460937 151.1734375 -25.57640625 150.503125 -26.0625 149.8125 C-26.46597656 149.24144531 -26.86945312 148.67039062 -27.28515625 148.08203125 C-29.15299029 142.64183701 -26.3288105 136.75536993 -24.5246582 131.58178711 C-11.74952607 94.71744943 -6.30158049 55.25878337 -2.25463867 16.61010742 C-2.17704819 15.87166595 -2.0994577 15.13322449 -2.01951599 14.37240601 C-1.81062333 12.37006588 -1.60584997 10.36729723 -1.40136719 8.36450195 C-1.06301437 5.52822444 -0.61289568 2.78761174 0 0 Z " transform="translate(558,693)"/>
    <path d="M0 0 C0.33 0 0.66 0 1 0 C1.05422119 0.86536377 1.10844238 1.73072754 1.16430664 2.62231445 C4.04662769 46.48110828 8.50074295 98.82474244 27.796875 138.8828125 C29.21291555 142.55164483 29.11274276 144.26078333 28 148 C20.86536589 164.0192728 8.23332995 175.06211037 -7.5390625 182.17578125 C-24.87441701 187.98174919 -44.54162301 186.80723431 -61 179 C-64.95997387 176.96924417 -68.48405473 174.72401511 -72 172 C-73.27230469 171.01580078 -73.27230469 171.01580078 -74.5703125 170.01171875 C-86.13288375 160.34088317 -92.82584632 147.89376599 -98 134 C-98.36222656 133.02804687 -98.72445313 132.05609375 -99.09765625 131.0546875 C-102.06578735 121.36339432 -101.27468794 111.02399687 -101 101 C-99.71029297 100.30777344 -99.71029297 100.30777344 -98.39453125 99.6015625 C-87.22414171 93.48804926 -77.44358569 86.32133055 -68.08984375 77.65625 C-67.53823578 77.14584167 -66.98662781 76.63543335 -66.41830444 76.10955811 C-59.85023604 69.98703607 -53.49774957 63.648034 -47.15917969 57.28955078 C-45.10986489 55.23482492 -43.05518737 53.18556897 -41 51.13671875 C-39.66894975 49.80500835 -38.33820939 48.47298812 -37.0078125 47.140625 C-36.10604782 46.24189667 -36.10604782 46.24189667 -35.18606567 45.32501221 C-28.87329121 38.97781982 -23.04504682 32.32746544 -17.8125 25.0625 C-17.35762207 24.43786865 -16.90274414 23.8132373 -16.43408203 23.16967773 C-13.81002366 19.55257588 -11.22644513 15.90827932 -8.66015625 12.25 C-8.11190186 11.46874756 -7.56364746 10.68749512 -6.9987793 9.88256836 C-5.92760265 8.35206292 -4.85997318 6.81906791 -3.79614258 5.28344727 C-2.55494162 3.50517423 -1.28085336 1.74992842 0 0 Z " transform="translate(465,692)"/>
    <path d="M0 0 C0.15855469 1.1859375 0.31710937 2.371875 0.48046875 3.59375 C2.38655639 17.10479538 4.71333712 30.65387271 12.08203125 42.3984375 C13 44 13 44 13 46 C-28.81946201 68.46261258 -85.35437957 77.24297439 -132.3359375 77.13037109 C-134.99484966 77.12501038 -137.65359295 77.130346 -140.3125 77.13671875 C-161.06780559 77.14785773 -161.06780559 77.14785773 -167 76 C-167.66 75.34 -168.32 74.68 -169 74 C-145.10289929 55.97675741 -118.66950151 41.42328605 -91 30 C-90.05785645 29.61054199 -89.11571289 29.22108398 -88.14501953 28.81982422 C-73.06886341 22.64350205 -57.79676528 17.04987193 -42.4375 11.625 C-41.1961026 11.18290192 -41.1961026 11.18290192 -39.92962646 10.73187256 C-30.8816358 7.51767067 -21.81756684 4.55390232 -12.53515625 2.0859375 C-11.73750351 1.87288971 -10.93985077 1.65984192 -10.11802673 1.44033813 C-6.60867873 0.53829335 -3.64611873 0 0 0 Z " transform="translate(407,519)"/>
    <path d="M0 0 C53.58547355 10.81393593 128.97757425 34.18449914 168 74 C157.11137081 75.93350519 146.58787929 76.32645022 135.5625 76.25 C134.72186005 76.24590118 133.88122009 76.24180237 133.0151062 76.23757935 C85.56357608 75.96717303 30.60893121 68.12010365 -12 46 C-11.38658322 42.25209087 -10.27522584 39.19089191 -8.6875 35.75 C-3.86946484 24.44293483 -1.77318334 12.10897568 0 0 Z " transform="translate(618,520)"/>
    <path d="M0 0 C-7.51366584 9.13824224 -15.97809878 17.36360504 -25 25 C-25.9075 25.79664063 -26.815 26.59328125 -27.75 27.4140625 C-41.78325631 39.65153008 -57.27606782 50.01986816 -72.68261719 60.43115234 C-74.90026289 61.93247886 -77.11063911 63.44400615 -79.3203125 64.95703125 C-135.22953745 103 -135.22953745 103 -149 103 C-149.23074219 102.05640625 -149.46148438 101.1128125 -149.69921875 100.140625 C-153.19691563 86.21004824 -158.02344103 72.57612275 -167.21484375 61.27734375 C-169 59 -169 59 -169 57 C-148.36056187 46.05269045 -127.61829476 35.86919372 -106 27 C-104.82099121 26.51305664 -103.64198242 26.02611328 -102.42724609 25.52441406 C-77.92248421 15.46026003 -53.10981623 6.76741989 -27 2 C-26.29681641 1.87012695 -25.59363281 1.74025391 -24.86914062 1.60644531 C-16.54681995 0.11644106 -8.44322125 -0.25245512 0 0 Z " transform="translate(764,386)"/>
    <path d="M0 0 C33.69385456 39.78496328 55.40527971 103.91407362 68 153.3125 C68.20794189 154.12444824 68.41588379 154.93639648 68.63012695 155.77294922 C69.5650454 159.59370659 70.2533632 163.03328232 70 167 C64.95708866 163.45923246 60.49822921 159.68898652 56.25 155.22265625 C54.30651516 153.30279015 52.32088586 151.52532043 50.25390625 149.7421875 C45.96764451 146.02110892 41.93823067 142.0865133 37.9375 138.0625 C37.26912109 137.39798828 36.60074219 136.73347656 35.91210938 136.04882812 C31.40335025 131.53130562 27.14383941 126.85317348 23 122 C22.29073364 121.17326782 22.29073364 121.17326782 21.56713867 120.32983398 C15.27678226 112.97180098 9.04614778 105.5601425 3 98 C2.56059082 97.45585449 2.12118164 96.91170898 1.66845703 96.35107422 C-16.03411959 74.30993032 -31.43246319 50.30338884 -44 25 C-42.83984375 24.57074219 -41.6796875 24.14148438 -40.484375 23.69921875 C-25.3151929 17.99910173 -11.9416427 11.23919313 0 0 Z " transform="translate(586,588)"/>
    <path d="M0 0 C3.49817439 1.53499569 6.05446037 3.63648159 8.9375 6.125 C19.81753932 15.09095833 30.78668275 20.52205937 44 25 C43.42229541 28.63781501 42.45526858 31.36321683 40.62890625 34.5546875 C40.14252686 35.40861084 39.65614746 36.26253418 39.1550293 37.14233398 C38.62949463 38.04411377 38.10395996 38.94589355 37.5625 39.875 C37.01827393 40.81609619 36.47404785 41.75719238 35.91333008 42.72680664 C31.68293918 49.97440255 27.20918544 56.99192555 22.44140625 63.89453125 C20.77257409 66.33220208 19.13625089 68.79034544 17.5 71.25 C9.8696965 82.66774467 1.90367432 93.54701403 -7 104 C-7.52223145 104.61842773 -8.04446289 105.23685547 -8.58251953 105.87402344 C-14.19948784 112.52537619 -19.90654539 119.08702588 -25.76953125 125.5234375 C-26.97033137 126.8567252 -28.16544719 128.19581428 -29.32348633 129.56640625 C-34.93077657 136.15433579 -41.04777696 142.2338711 -47.16137695 148.34667969 C-49.06686613 150.25437117 -50.96418626 152.16994904 -52.86132812 154.0859375 C-54.08544756 155.31298897 -55.31004065 156.53956813 -56.53515625 157.765625 C-57.09469498 158.33234924 -57.6542337 158.89907349 -58.23072815 159.48297119 C-61.59460697 162.82759651 -64.96651537 165.49789668 -69 168 C-68.44360697 159.17719619 -65.9546833 150.94143113 -63.5 142.5 C-63.27524994 141.72212128 -63.05049988 140.94424255 -62.81893921 140.14279175 C-52.17388369 103.41121724 -37.2323311 68.10676816 -20 34 C-19.5162793 33.04206543 -19.03255859 32.08413086 -18.53417969 31.09716797 C-13.03652217 20.28200873 -7.38112619 9.6725803 0 0 Z " transform="translate(437,588)"/>
    <path d="M0 0 C47.35903993 4.76560833 89.94013359 21.75841887 133 41 C133.9187793 41.41024414 134.83755859 41.82048828 135.78417969 42.24316406 C146.30421248 46.97353347 156.3750016 52.37728315 166.39038086 58.09545898 C167.57636138 58.76193219 168.78320542 59.39160271 170 60 C168.66367096 63.66349719 167.00313822 66.65671685 164.8125 69.875 C157.94427428 80.52074987 153.31358733 91.79529636 150 104 C142.34272642 101.74691741 135.67309939 98.39401426 128.6875 94.5625 C127.54539062 93.94068848 126.40328125 93.31887695 125.2265625 92.67822266 C101.4312953 79.63402939 79.12386865 64.67327369 57 49 C56.21560547 48.44666992 55.43121094 47.89333984 54.62304688 47.32324219 C35.05538356 33.49772692 16.41981133 18.51877508 0 1 C0 0.67 0 0.34 0 0 Z " transform="translate(259,385)"/>
    <path d="M0 0 C0.33 0 0.66 0 1 0 C0.38485114 42.38934859 -11.00303569 84.10636923 -25.1875 123.75 C-25.50993683 124.65578796 -25.83237366 125.56157593 -26.1645813 126.49481201 C-31.3614954 141.04822213 -37.05807031 155.17763193 -44 169 C-47.68932281 167.62274796 -51.13180085 165.94077221 -54.62011719 164.13134766 C-65.27899669 158.62065157 -75.09778055 155.73829666 -87 154 C-82.63264246 128.92264419 -65.56786697 103.38312043 -52.70361328 81.8515625 C-51.10549577 79.1765822 -49.51813396 76.4955378 -47.93359375 73.8125 C-36.48574346 54.4928283 -24.2328042 35.74431807 -11.6875 17.125 C-10.83256454 15.85331467 -10.83256454 15.85331467 -9.96035767 14.55593872 C-8.33554701 12.14139976 -6.7057976 9.7302816 -5.07421875 7.3203125 C-4.57695282 6.58079849 -4.07968689 5.84128448 -3.56735229 5.07936096 C-2.40434176 3.36820253 -1.20606809 1.68108788 0 0 Z " transform="translate(614,253)"/>
    <path d="M0 0 C3.24936119 3.90519556 6.0224283 7.97755461 8.75 12.25 C9.21825195 12.97960937 9.68650391 13.70921875 10.16894531 14.4609375 C11.21136118 16.0858996 12.25264253 17.7115899 13.29296875 19.33789062 C15.10426108 22.1625948 16.92655358 24.98000308 18.75 27.796875 C27.51374844 41.36742308 35.98030912 55.08804667 44.21386719 68.98632812 C45.96260378 71.93690282 47.71880874 74.88291535 49.4765625 77.828125 C63.90979161 102.0570485 77.28617609 126.44446091 87 153 C85.76765625 153.30292969 84.5353125 153.60585938 83.265625 153.91796875 C71.38362199 156.89959497 60.62393362 160.64782326 49.65234375 166.16015625 C48.58878662 166.69390869 47.52522949 167.22766113 46.42944336 167.77758789 C45.62772705 168.18098389 44.82601074 168.58437988 44 169 C21.64101549 120.08011334 -0.59455604 61.2392719 -0.0625 6.4375 C-0.05347656 5.21933594 -0.04445313 4.00117188 -0.03515625 2.74609375 C-0.02355469 1.83988281 -0.01195312 0.93367187 0 0 Z " transform="translate(410,254)"/>
    <path d="M0 0 C0.99 0 1.98 0 3 0 C7.39509819 8.18782252 11.39307816 16.37130042 14.375 25.1875 C14.61299316 25.87376465 14.85098633 26.5600293 15.09619141 27.26708984 C19.26860306 40.1332792 19.40358026 53.30649517 19.375 66.6875 C19.37478851 67.60329834 19.37457703 68.51909668 19.37435913 69.46264648 C19.30088755 101.60071727 14.23540587 132.87915545 6.3125 164 C6.01496826 165.17103271 5.71743652 166.34206543 5.41088867 167.54858398 C5.12705322 168.62567627 4.84321777 169.70276855 4.55078125 170.8125 C4.17433472 172.24529297 4.17433472 172.24529297 3.7902832 173.70703125 C3 176 3 176 1 178 C-8.76052371 140.14022727 -16.30594907 102.94493772 -16.4375 63.6875 C-16.4436734 62.91024567 -16.4498468 62.13299133 -16.45620728 61.33218384 C-16.56918452 39.38919946 -10.81566626 20.51902513 -1 1 C-0.67 0.67 -0.34 0.34 0 0 Z " transform="translate(510,618)"/>
    <path d="M0 0 C4.57770184 3.74539242 8.78579309 7.73440897 12.9375 11.9375 C17.45817359 16.50789749 22.07875753 20.85856897 27 25 C28.33390444 26.14516844 29.66726268 27.29097349 31 28.4375 C31.99 29.283125 32.98 30.12875 34 31 C34.66 30.34 35.32 29.68 36 29 C36.495 32.465 36.495 32.465 37 36 C31.851811 32.38531411 27.3621902 28.4932257 22.98046875 23.984375 C21.15637697 22.1566854 19.28187015 20.48047807 17.3125 18.8125 C13.38435897 15.42752877 9.68493632 11.83257224 6 8.1875 C5.41130127 7.61169189 4.82260254 7.03588379 4.21606445 6.44262695 C2.77074915 5.00072594 1.38020704 3.50434151 0 2 C0 1.34 0 0.68 0 0 Z " transform="translate(619,719)"/>
    <path d="M0 0 C0.75410156 0.00322266 1.50820313 0.00644531 2.28515625 0.00976562 C3.06246094 0.01814453 3.83976563 0.02652344 4.640625 0.03515625 C5.43339844 0.03966797 6.22617187 0.04417969 7.04296875 0.04882812 C8.99222008 0.0605706 10.94143238 0.07850479 12.890625 0.09765625 C12.890625 1.08765625 12.890625 2.07765625 12.890625 3.09765625 C4.640625 3.09765625 -3.609375 3.09765625 -12.109375 3.09765625 C-7.79082237 0.93837993 -4.77182307 -0.03615017 0 0 Z " transform="translate(510.109375,126.90234375)"/>
    <path d="M0 0 C0.33 0 0.66 0 1 0 C0.67 4.29 0.34 8.58 0 13 C-0.33 12.01 -0.66 11.02 -1 10 C-4.05081496 10.31723076 -4.90666113 10.88901781 -6.921875 13.28515625 C-7.52515625 14.20167969 -8.1284375 15.11820312 -8.75 16.0625 C-9.67039062 17.44115234 -9.67039062 17.44115234 -10.609375 18.84765625 C-11.29773438 19.91306641 -11.29773438 19.91306641 -12 21 C-12 17.52032277 -11.31535443 16.60367203 -9.41015625 13.76953125 C-8.87326172 12.96708984 -8.33636719 12.16464844 -7.78320312 11.33789062 C-7.21537109 10.50451172 -6.64753906 9.67113281 -6.0625 8.8125 C-5.49853516 7.96751953 -4.93457031 7.12253906 -4.35351562 6.25195312 C-1.27444019 1.68312144 -1.27444019 1.68312144 0 0 Z " transform="translate(614,253)"/>
    <path d="M0 0 C0.67224609 -0.01224609 1.34449219 -0.02449219 2.03710938 -0.03710938 C5.73628237 -0.04812975 7.27721933 0.08064622 10.4375 2.1875 C6.60346923 3.41321316 2.87615923 3.35544399 -1.125 3.375 C-1.79724609 3.38724609 -2.46949219 3.39949219 -3.16210938 3.41210938 C-6.86128237 3.42312975 -8.40221933 3.29435378 -11.5625 1.1875 C-7.72846923 -0.03821316 -4.00115923 0.01955601 0 0 Z " transform="translate(514.5625,434.8125)"/>
    <path d="M0 0 C0 0.99 0 1.98 0 3 C-9.24 3 -18.48 3 -28 3 C-28 2.67 -28 2.34 -28 2 C-18.61304896 0.66581407 -9.50904899 -0.32417212 0 0 Z " transform="translate(772,593)"/>
    <path d="M0 0 C-0.94875 0.37125 -1.8975 0.7425 -2.875 1.125 C-6.1824852 2.73956263 -6.1824852 2.73956263 -7.5 5.875 C-8.05680919 9.35505744 -7.62757887 10.92568435 -6 14 C-8.5999298 11.48972295 -10.99091227 9.0136316 -13 6 C-13 5.34 -13 4.68 -13 4 C-11.40233897 3.13372601 -9.79660056 2.28233535 -8.1875 1.4375 C-7.29417969 0.96183594 -6.40085937 0.48617188 -5.48046875 -0.00390625 C-3 -1 -3 -1 0 0 Z " transform="translate(608,439)"/>
    <path d="M0 0 C2.31 0.66 4.62 1.32 7 2 C5.68 2.33 4.36 2.66 3 3 C3.51691406 3.97582031 4.03382813 4.95164062 4.56640625 5.95703125 C5.23229533 7.24191582 5.89763128 8.52708715 6.5625 9.8125 C6.90474609 10.45509766 7.24699219 11.09769531 7.59960938 11.75976562 C8.4765023 13.46926395 9.24515617 15.23321294 10 17 C9.67 17.99 9.34 18.98 9 20 C7.49352402 17.04492094 5.99593635 14.08542659 4.5 11.125 C4.07074219 10.28324219 3.64148438 9.44148437 3.19921875 8.57421875 C2.79316406 7.76855469 2.38710938 6.96289062 1.96875 6.1328125 C1.59169922 5.38918457 1.21464844 4.64555664 0.82617188 3.87939453 C0 2 0 2 0 0 Z " transform="translate(631,606)"/>
    <path d="M0 0 C1.32 1.65 2.64 3.3 4 5 C3.01 5.495 3.01 5.495 2 6 C2 10.29 2 14.58 2 19 C1.67 19 1.34 19 1 19 C-0.00926479 14.84373632 -0.10239579 10.95634906 -0.0625 6.6875 C-0.05347656 5.43324219 -0.04445313 4.17898438 -0.03515625 2.88671875 C-0.01775391 1.45779297 -0.01775391 1.45779297 0 0 Z " transform="translate(410,254)"/>
    <path d="M0 0 C0 0.99 0 1.98 0 3 C-6.435 3.495 -6.435 3.495 -13 4 C-12.67 3.01 -12.34 2.02 -12 1 C-7.915021 0.45533613 -4.1274515 0 0 0 Z " transform="translate(798,622)"/>
    <path d="M0 0 C1.23593891 3.70781672 0.5678132 4.67510253 -0.9375 8.1875 C-1.31777344 9.08855469 -1.69804688 9.98960937 -2.08984375 10.91796875 C-2.54037109 11.94857422 -2.54037109 11.94857422 -3 13 C-2.01 12.67 -1.02 12.34 0 12 C0 12.66 0 13.32 0 14 C-1.98 14.66 -3.96 15.32 -6 16 C-4.02 10.72 -2.04 5.44 0 0 Z " transform="translate(616,387)"/>
    <path d="M0 0 C0.33 0 0.66 0 1 0 C1 5.61 1 11.22 1 17 C0.67 17 0.34 17 0 17 C-0.33 13.37 -0.66 9.74 -1 6 C-2.98 6.99 -2.98 6.99 -5 8 C-4.19185349 6.66402348 -3.37836819 5.331275 -2.5625 4 C-2.11003906 3.2575 -1.65757812 2.515 -1.19140625 1.75 C-0.79824219 1.1725 -0.40507812 0.595 0 0 Z " transform="translate(465,692)"/>
    <path d="M0 0 C-4.1811819 2.7874546 -8.06767777 3.21531237 -13 4 C-13 3.01 -13 2.02 -13 1 C-4.57142857 -1.42857143 -4.57142857 -1.42857143 0 0 Z " transform="translate(773,810)"/>
    <path d="M0 0 C3.63 0 7.26 0 11 0 C8 3 8 3 4.86328125 3.29296875 C3.69152344 3.25816406 2.51976562 3.22335937 1.3125 3.1875 C-0.45673828 3.14689453 -0.45673828 3.14689453 -2.26171875 3.10546875 C-3.16535156 3.07066406 -4.06898438 3.03585937 -5 3 C-5 2.67 -5 2.34 -5 2 C-3.35 1.67 -1.7 1.34 0 1 C0 0.67 0 0.34 0 0 Z " transform="translate(284,625)"/>
    <path d="M0 0 C0 3.63 0 7.26 0 11 C-0.33 11 -0.66 11 -1 11 C-1.33 8.36 -1.66 5.72 -2 3 C-4.31 3 -6.62 3 -9 3 C-9 2.34 -9 1.68 -9 1 C-5.846632 0.29925156 -3.27275026 0 0 0 Z " transform="translate(407,519)"/>
    <path d="M0 0 C0.33 0 0.66 0 1 0 C0.88590407 1.45922693 0.75834456 2.91740598 0.625 4.375 C0.55539062 5.18710937 0.48578125 5.99921875 0.4140625 6.8359375 C0 9 0 9 -2 11 C-2.33 10.34 -2.66 9.68 -3 9 C-3.66 9 -4.32 9 -5 9 C-5 8.01 -5 7.02 -5 6 C-4.34 6 -3.68 6 -3 6 C-2.67 5.34 -2.34 4.68 -2 4 C-1.33333333 2.66666667 -0.66666667 1.33333333 0 0 Z " transform="translate(515,778)"/>
    <path d="M0 0 C-0.11458693 1.43836751 -0.24209116 2.87570966 -0.375 4.3125 C-0.44460938 5.11300781 -0.51421875 5.91351562 -0.5859375 6.73828125 C-1 9 -1 9 -3 12 C-3.83220851 8.02389268 -4.23098442 4.9167686 -3 1 C-1 0 -1 0 0 0 Z " transform="translate(923,510)"/>
    <path d="M0 0 C0.33 0 0.66 0 1 0 C1.65156409 4.72383963 2.11950637 9.21974517 2 14 C1.01 13.67 0.02 13.34 -1 13 C-0.67 8.71 -0.34 4.42 0 0 Z " transform="translate(555,716)"/>
    <path d="M0 0 C0.33 0 0.66 0 1 0 C1.18451025 9.41002278 1.18451025 9.41002278 0 14 C-2.61382886 10.07925671 -2.29386386 6.55488983 -2 2 C-1.34 1.34 -0.68 0.68 0 0 Z " transform="translate(496,662)"/>
    <path d="M0 0 C0.99 0 1.98 0 3 0 C3 2.97 3 5.94 3 9 C2.34 9 1.68 9 1 9 C0.67 6.03 0.34 3.06 0 0 Z " transform="translate(833,280)"/>
    <path d="M0 0 C0 0.99 0 1.98 0 3 C-1.65 3.66 -3.3 4.32 -5 5 C-5 5.99 -5 6.98 -5 8 C-6.98 8.33 -8.96 8.66 -11 9 C-7.56638098 5.36440339 -4.2026393 2.63886654 0 0 Z " transform="translate(249,585)"/>
    <path d="M0 0 C1.11126362 3.33379087 0.95133201 5.62709561 0 9 C-0.66 9.99 -1.32 10.98 -2 12 C-2.83220851 8.02389268 -3.23098442 4.9167686 -2 1 C-1.34 0.67 -0.68 0.34 0 0 Z " transform="translate(833,320)"/>
    <path d="M0 0 C1.9955516 3.99110319 2.19546065 5.69986566 2 10 C1.01 10 0.02 10 -1 10 C-0.67 6.7 -0.34 3.4 0 0 Z " transform="translate(640,295)"/>
    <path d="M0 0 C0.33 0 0.66 0 1 0 C1.33 3.63 1.66 7.26 2 11 C1.01 11 0.02 11 -1 11 C-0.67 7.37 -0.34 3.74 0 0 Z " transform="translate(552,740)"/>
    <path d="M0 0 C0.66 0.66 1.32 1.32 2 2 C1.625 5.125 1.625 5.125 1 8 C0.01 8 -0.98 8 -2 8 C-1.34 5.36 -0.68 2.72 0 0 Z " transform="translate(224,266)"/>
    <path d="M0 0 C0.33 0 0.66 0 1 0 C1.33 2.97 1.66 5.94 2 9 C1.01 9 0.02 9 -1 9 C-0.67 6.03 -0.34 3.06 0 0 Z " transform="translate(473,758)"/>
    <path d="M0 0 C1.32 0.33 2.64 0.66 4 1 C2.68 3.31 1.36 5.62 0 8 C-0.66 7.67 -1.32 7.34 -2 7 C-1.67 6.401875 -1.34 5.80375 -1 5.1875 C0.20787988 2.94613529 0.20787988 2.94613529 0 0 Z " transform="translate(389,606)"/>
    <path d="M0 0 C0.33 0.66 0.66 1.32 1 2 C0.0625 4.625 0.0625 4.625 -1 7 C-1.66 7 -2.32 7 -3 7 C-3.33 7.66 -3.66 8.32 -4 9 C-3.46930939 5.17902761 -2.50298434 2.93828597 0 0 Z " transform="translate(433,594)"/>
    <path d="M0 0 C2.15377564 2.62198774 3.40072174 4.64404172 4 8 C2.02 7.01 0.04 6.02 -2 5 C-1.34 4.34 -0.68 3.68 0 3 C0 2.01 0 1.02 0 0 Z " transform="translate(411,397)"/>
    <path d="M0 0 C0.94875 0.04125 1.8975 0.0825 2.875 0.125 C1.885 1.61 1.885 1.61 0.875 3.125 C-2.095 2.63 -2.095 2.63 -5.125 2.125 C-3.125 0.125 -3.125 0.125 0 0 Z " transform="translate(754.125,385.875)"/>
  </g>
</svg>